<mxfile host="app.diagrams.net" modified="2022-09-12T06:49:21.741Z" agent="5.0 (Windows NT 10.0; Win64; x64) AppleWebKit/537.36 (KHTML, like Gecko) Chrome/105.0.0.0 Safari/537.36" etag="MvVzLY9b6yv5a81aK50E" version="20.3.0" type="github">
  <diagram name="Page-1" id="58cdce13-f638-feb5-8d6f-7d28b1aa9fa0">
    <mxGraphModel dx="1183" dy="725" grid="1" gridSize="10" guides="1" tooltips="1" connect="1" arrows="1" fold="1" page="1" pageScale="1" pageWidth="1100" pageHeight="850" background="none" math="0" shadow="0">
      <root>
        <mxCell id="0" />
        <mxCell id="1" parent="0" />
        <mxCell id="382b91b5511bd0f7-1" value="" style="ellipse;html=1;shape=startState;fillColor=#000000;strokeColor=#000000;rounded=0;shadow=0;comic=0;labelBackgroundColor=none;fontFamily=Verdana;fontSize=12;fontColor=#000000;align=center;direction=south;" parent="1" vertex="1">
          <mxGeometry x="80" y="135" width="30" height="30" as="geometry" />
        </mxCell>
        <mxCell id="2a3bc250acf0617d-9" style="edgeStyle=orthogonalEdgeStyle;html=1;labelBackgroundColor=none;endArrow=open;endSize=8;strokeColor=#000000;fontFamily=Verdana;fontSize=12;align=left;rounded=0;fontColor=#000000;" parent="1" source="382b91b5511bd0f7-1" edge="1">
          <mxGeometry relative="1" as="geometry">
            <mxPoint x="400" y="150" as="targetPoint" />
          </mxGeometry>
        </mxCell>
        <mxCell id="tSrQEn2e4U55PbRZDWcC-7" value="最近接距離測距" style="swimlane;fillColor=#fff2cc;strokeColor=#d6b656;rounded=0;" vertex="1" parent="1">
          <mxGeometry x="400" y="80" width="290" height="140" as="geometry" />
        </mxCell>
        <mxCell id="tSrQEn2e4U55PbRZDWcC-9" value="entry/ステート内情報リセット&lt;br&gt;do/測距・最近距離表示&lt;br&gt;exit/ステート内情報リセット&lt;br&gt;ボタン押下/ステート内情報リセット" style="text;html=1;align=left;verticalAlign=middle;resizable=0;points=[];autosize=1;strokeColor=none;fillColor=none;fontSize=16;rounded=0;glass=0;sketch=0;shadow=0;fillStyle=dots;" vertex="1" parent="tSrQEn2e4U55PbRZDWcC-7">
          <mxGeometry x="10" y="39" width="280" height="90" as="geometry" />
        </mxCell>
        <mxCell id="tSrQEn2e4U55PbRZDWcC-15" value="ボタン押下測距" style="swimlane;fillColor=#fff2cc;strokeColor=#d6b656;rounded=0;" vertex="1" parent="1">
          <mxGeometry x="120" y="380" width="280" height="140" as="geometry" />
        </mxCell>
        <mxCell id="tSrQEn2e4U55PbRZDWcC-16" value="entry/ステート内情報リセット&lt;br&gt;exit/ステート内情報リセット&lt;br&gt;ボタン押下/測距・距離表示" style="text;html=1;align=left;verticalAlign=middle;resizable=0;points=[];autosize=1;strokeColor=none;fillColor=none;fontSize=16;rounded=0;glass=0;sketch=0;shadow=0;fillStyle=dots;" vertex="1" parent="tSrQEn2e4U55PbRZDWcC-15">
          <mxGeometry x="20" y="49" width="240" height="70" as="geometry" />
        </mxCell>
        <mxCell id="tSrQEn2e4U55PbRZDWcC-17" value="変化距離表示" style="swimlane;fillColor=#fff2cc;strokeColor=#d6b656;rounded=0;" vertex="1" parent="1">
          <mxGeometry x="680" y="380" width="290" height="140" as="geometry" />
        </mxCell>
        <mxCell id="tSrQEn2e4U55PbRZDWcC-18" value="entry/ステート内情報リセット&lt;br&gt;do/測距・時間測定・変化量計算&lt;br&gt;exit/ステート内情報リセット&lt;br&gt;ボタン押下/一時停止・再開" style="text;html=1;align=left;verticalAlign=middle;resizable=0;points=[];autosize=1;strokeColor=none;fillColor=none;fontSize=16;rounded=0;glass=0;sketch=0;shadow=0;fillStyle=dots;" vertex="1" parent="tSrQEn2e4U55PbRZDWcC-17">
          <mxGeometry x="20" y="39" width="250" height="90" as="geometry" />
        </mxCell>
        <mxCell id="tSrQEn2e4U55PbRZDWcC-19" style="edgeStyle=orthogonalEdgeStyle;html=1;labelBackgroundColor=none;endArrow=open;endSize=8;strokeColor=#000000;fontFamily=Verdana;fontSize=12;align=left;rounded=0;exitX=0.25;exitY=1;exitDx=0;exitDy=0;entryX=0.75;entryY=0;entryDx=0;entryDy=0;" edge="1" parent="1" source="tSrQEn2e4U55PbRZDWcC-7" target="tSrQEn2e4U55PbRZDWcC-15">
          <mxGeometry relative="1" as="geometry">
            <mxPoint x="370" y="360" as="sourcePoint" />
            <mxPoint x="660" y="360" as="targetPoint" />
          </mxGeometry>
        </mxCell>
        <mxCell id="tSrQEn2e4U55PbRZDWcC-20" style="edgeStyle=orthogonalEdgeStyle;html=1;labelBackgroundColor=none;endArrow=open;endSize=8;strokeColor=#000000;fontFamily=Verdana;fontSize=12;align=left;rounded=0;exitX=0.25;exitY=0;exitDx=0;exitDy=0;" edge="1" parent="1" source="tSrQEn2e4U55PbRZDWcC-17">
          <mxGeometry relative="1" as="geometry">
            <mxPoint x="480" y="230" as="sourcePoint" />
            <mxPoint x="640" y="220" as="targetPoint" />
          </mxGeometry>
        </mxCell>
        <mxCell id="tSrQEn2e4U55PbRZDWcC-21" style="edgeStyle=orthogonalEdgeStyle;html=1;labelBackgroundColor=none;endArrow=open;endSize=8;strokeColor=#000000;fontFamily=Verdana;fontSize=12;align=left;rounded=0;exitX=1;exitY=0.5;exitDx=0;exitDy=0;entryX=0;entryY=0.5;entryDx=0;entryDy=0;" edge="1" parent="1" source="tSrQEn2e4U55PbRZDWcC-15" target="tSrQEn2e4U55PbRZDWcC-17">
          <mxGeometry relative="1" as="geometry">
            <mxPoint x="430" y="460" as="sourcePoint" />
            <mxPoint x="680" y="460" as="targetPoint" />
          </mxGeometry>
        </mxCell>
        <mxCell id="tSrQEn2e4U55PbRZDWcC-22" value="ボタン長押し&lt;span style=&quot;color: rgba(0, 0, 0, 0); font-family: monospace; font-size: 0px; text-align: start;&quot;&gt;%3CmxGraphModel%3E%3Croot%3E%3CmxCell%20id%3D%220%22%2F%3E%3CmxCell%20id%3D%221%22%20parent%3D%220%22%2F%3E%3CmxCell%20id%3D%222%22%20style%3D%22edgeStyle%3DorthogonalEdgeStyle%3Bhtml%3D1%3BlabelBackgroundColor%3Dnone%3BendArrow%3Dopen%3BendSize%3D8%3BstrokeColor%3D%23ff0000%3BfontFamily%3DVerdana%3BfontSize%3D12%3Balign%3Dleft%3Brounded%3D0%3B%22%20edge%3D%221%22%20parent%3D%221%22%3E%3CmxGeometry%20relative%3D%221%22%20as%3D%22geometry%22%3E%3CmxPoint%20x%3D%22110%22%20y%3D%22150%22%20as%3D%22sourcePoint%22%2F%3E%3CmxPoint%20x%3D%22400%22%20y%3D%22150%22%20as%3D%22targetPoint%22%2F%3E%3C%2FmxGeometry%3E%3C%2FmxCell%3E%3C%2Froot%3E%3C%2FmxGraphModel%3E&lt;/span&gt;" style="text;html=1;align=center;verticalAlign=middle;resizable=0;points=[];autosize=1;strokeColor=none;fillColor=none;fontSize=16;fontColor=#000000;" vertex="1" parent="1">
          <mxGeometry x="280" y="260" width="120" height="30" as="geometry" />
        </mxCell>
        <mxCell id="tSrQEn2e4U55PbRZDWcC-23" value="ボタン長押し&lt;span style=&quot;color: rgba(0, 0, 0, 0); font-family: monospace; font-size: 0px; text-align: start;&quot;&gt;%3CmxGraphModel%3E%3Croot%3E%3CmxCell%20id%3D%220%22%2F%3E%3CmxCell%20id%3D%221%22%20parent%3D%220%22%2F%3E%3CmxCell%20id%3D%222%22%20style%3D%22edgeStyle%3DorthogonalEdgeStyle%3Bhtml%3D1%3BlabelBackgroundColor%3Dnone%3BendArrow%3Dopen%3BendSize%3D8%3BstrokeColor%3D%23ff0000%3BfontFamily%3DVerdana%3BfontSize%3D12%3Balign%3Dleft%3Brounded%3D0%3B%22%20edge%3D%221%22%20parent%3D%221%22%3E%3CmxGeometry%20relative%3D%221%22%20as%3D%22geometry%22%3E%3CmxPoint%20x%3D%22110%22%20y%3D%22150%22%20as%3D%22sourcePoint%22%2F%3E%3CmxPoint%20x%3D%22400%22%20y%3D%22150%22%20as%3D%22targetPoint%22%2F%3E%3C%2FmxGeometry%3E%3C%2FmxCell%3E%3C%2Froot%3E%3C%2FmxGraphModel%3E&lt;/span&gt;" style="text;html=1;align=center;verticalAlign=middle;resizable=0;points=[];autosize=1;strokeColor=none;fillColor=none;fontSize=16;fontColor=#000000;" vertex="1" parent="1">
          <mxGeometry x="490" y="460" width="120" height="30" as="geometry" />
        </mxCell>
        <mxCell id="tSrQEn2e4U55PbRZDWcC-24" value="ボタン長押し&lt;span style=&quot;color: rgba(0, 0, 0, 0); font-family: monospace; font-size: 0px; text-align: start;&quot;&gt;%3CmxGraphModel%3E%3Croot%3E%3CmxCell%20id%3D%220%22%2F%3E%3CmxCell%20id%3D%221%22%20parent%3D%220%22%2F%3E%3CmxCell%20id%3D%222%22%20style%3D%22edgeStyle%3DorthogonalEdgeStyle%3Bhtml%3D1%3BlabelBackgroundColor%3Dnone%3BendArrow%3Dopen%3BendSize%3D8%3BstrokeColor%3D%23ff0000%3BfontFamily%3DVerdana%3BfontSize%3D12%3Balign%3Dleft%3Brounded%3D0%3B%22%20edge%3D%221%22%20parent%3D%221%22%3E%3CmxGeometry%20relative%3D%221%22%20as%3D%22geometry%22%3E%3CmxPoint%20x%3D%22110%22%20y%3D%22150%22%20as%3D%22sourcePoint%22%2F%3E%3CmxPoint%20x%3D%22400%22%20y%3D%22150%22%20as%3D%22targetPoint%22%2F%3E%3C%2FmxGeometry%3E%3C%2FmxCell%3E%3C%2Froot%3E%3C%2FmxGraphModel%3E&lt;/span&gt;" style="text;html=1;align=center;verticalAlign=middle;resizable=0;points=[];autosize=1;strokeColor=none;fillColor=none;fontSize=16;fontColor=#000000;" vertex="1" parent="1">
          <mxGeometry x="680" y="260" width="120" height="30" as="geometry" />
        </mxCell>
      </root>
    </mxGraphModel>
  </diagram>
</mxfile>
